<svg xmlns="http://www.w3.org/2000/svg" xmlns:xlink="http://www.w3.org/1999/xlink" id="Layer_1" width="133.2" height="133.2" x="0" y="0" enable-background="new 0 0 133.2 133.2" version="1.1" viewBox="0 0 133.2 133.2" xml:space="preserve"><path fill-rule="evenodd" d="M99.9,43.5L75.2,68.3L98,91.1c1.9,1.9,1.4,5.4-1.1,7.8l-0.3,0.3	c-2.4,2.4-5.9,2.9-7.8,1L66.1,77.4l-25.7,25.8c-1.8,1.8-5.2,1.2-7.7-1.3l-0.3-0.3c-2.5-2.5-3.1-6-1.3-7.8l25.7-25.8L32.6,43.9	c-1.9-1.9-1.4-5.4,1-7.8l0.3-0.3c2.4-2.4,5.9-2.9,7.8-1.1l24.1,24.1l24.7-24.8c1.8-1.8,5.2-1.2,7.7,1.3l0.3,0.3	C101.1,38.3,101.7,41.8,99.9,43.5L99.9,43.5z" clip-rule="evenodd"/></svg>