<svg xmlns="http://www.w3.org/2000/svg" xmlns:xlink="http://www.w3.org/1999/xlink" id="Layer_1" x="0" y="0" version="1.1" viewBox="0 0 133.2 133.2" xml:space="preserve" style="enable-background:new 0 0 133.2 133.2"><path d="M19.5,56.7c5.1,0.7,9.1,5.4,9.1,11c0,5.6-4,10.3-9.1,11c-0.4,0.1-0.9,0.1-1.3,0.1c-5.7,0-10.4-5-10.4-11.1	s4.7-11.1,10.4-11.1C18.6,56.5,19.1,56.7,19.5,56.7L19.5,56.7z M67,56.7c5.1,0.7,9.1,5.4,9.1,11s-4,10.3-9.1,11	c-0.4,0.1-0.9,0.1-1.3,0.1c-5.7,0-10.4-5-10.4-11.1S60,56.6,65.7,56.6C66.1,56.5,66.5,56.7,67,56.7L67,56.7z M114.4,56.7	c5.1,0.7,9.1,5.4,9.1,11s-4,10.3-9.1,11c-0.4,0.1-0.9,0.1-1.3,0.1c-5.7,0-10.4-5-10.4-11.1s4.7-11.1,10.4-11.1	C113.5,56.5,114,56.7,114.4,56.7L114.4,56.7z"/></svg>