<svg xmlns="http://www.w3.org/2000/svg" xmlns:xlink="http://www.w3.org/1999/xlink" id="Layer_1" width="133.2" height="133.2" x="0" y="0" enable-background="new 0 0 133.2 133.2" version="1.1" viewBox="0 0 133.2 133.2" xml:space="preserve"><path d="M106.3,107L80.6,80.6c5-6,8.1-13.8,8.1-22.4c0-19-15-34.4-33.5-34.4c-18.5,0-33.5,15.4-33.5,34.4c0,19,15,34.4,33.5,34.4	c7.3,0,14.1-2.5,19.6-6.6l25.9,26.6L106.3,107L106.3,107z M25.7,58.2c0-16.8,13.3-30.4,29.6-30.4c16.3,0,29.6,13.6,29.6,30.4	S71.5,88.6,55.2,88.6C38.9,88.6,25.7,74.9,25.7,58.2L25.7,58.2z"/></svg>