<svg xmlns="http://www.w3.org/2000/svg" xmlns:xlink="http://www.w3.org/1999/xlink" width="36" height="36" x="0" y="0" enable-background="new 0 0 36 36" version="1.1" viewBox="0 0 36 36" xml:space="preserve"><g id="Layer_3_copy"><path fill-rule="evenodd" d="M18.2,1.5C9.3,1.5,2,8.7,2,17.7c0,9,7.3,16.2,16.2,16.2c9,0,16.2-7.3,16.2-16.2 C34.4,8.7,27.2,1.5,18.2,1.5z M18.2,32c-7.9,0-14.3-6.4-14.3-14.3c0-7.9,6.4-14.3,14.3-14.3c7.9,0,14.3,6.4,14.3,14.3 C32.5,25.6,26.1,32,18.2,32z" clip-rule="evenodd"/></g><g id="Layer_5"><path fill-rule="evenodd" d="M30,27l-2,2L6,9l2-2L30,27z" clip-rule="evenodd"/></g></svg>