<svg xmlns="http://www.w3.org/2000/svg" xmlns:xlink="http://www.w3.org/1999/xlink" id="Layer_3" x="0" y="0" version="1.1" viewBox="0 0 45 45" xml:space="preserve" style="enable-background:new 0 0 45 45"><path d="M22.5,0C10.1,0,0,10.1,0,22.5S10.1,45,22.5,45S45,34.9,45,22.5S34.9,0,22.5,0z M28.2,32.1c0,0-5.3-5.7-5.7-5.7	s-5.7,5.7-5.7,5.7l-3.3-3.3c0,0,5.7-5.2,5.7-5.7c0-0.5-5.7-5.7-5.7-5.7l3.3-3.3c0,0,5.3,5.7,5.7,5.7s5.7-5.7,5.7-5.7l3.3,3.3	c0,0-5.7,5.3-5.7,5.7c0,0.4,5.7,5.7,5.7,5.7L28.2,32.1z"/></svg>